<svg xmlns="http://www.w3.org/2000/svg" viewBox="0 0 60 30" role="img" aria-label="United Kingdom flag">
  <rect width="60" height="30" fill="#012169"/>
  <polygon points="0,0 6,0 60,24 60,30 54,30 0,6" fill="#fff"/>
  <polygon points="60,0 54,0 0,24 0,30 6,30 60,6" fill="#fff"/>
  <polygon points="0,0 3,0 60,27 60,30 57,30 0,3" fill="#C8102E"/>
  <polygon points="60,0 57,0 0,27 0,30 3,30 60,3" fill="#C8102E"/>
  <rect x="24" width="12" height="30" fill="#fff"/>
  <rect y="9" width="60" height="12" fill="#fff"/>
  <rect x="26" width="8" height="30" fill="#C8102E"/>
  <rect y="11" width="60" height="8" fill="#C8102E"/>
</svg>
