<svg xmlns="http://www.w3.org/2000/svg" viewBox="0 0 24 16" role="img" aria-label="United States flag">
  <rect width="24" height="16" fill="#fff"/>
  <rect y="0" width="24" height="1.23" fill="#B22234"/>
  <rect y="2.46" width="24" height="1.23" fill="#B22234"/>
  <rect y="4.92" width="24" height="1.23" fill="#B22234"/>
  <rect y="7.38" width="24" height="1.23" fill="#B22234"/>
  <rect y="9.84" width="24" height="1.23" fill="#B22234"/>
  <rect y="12.3" width="24" height="1.23" fill="#B22234"/>
  <rect y="14.76" width="24" height="1.24" fill="#B22234"/>
  <rect width="10.4" height="8.6" fill="#3C3B6E"/>
  <g fill="#fff">
    <circle cx="1.3" cy="1.1" r="0.35"/>
    <circle cx="3.1" cy="1.1" r="0.35"/>
    <circle cx="4.9" cy="1.1" r="0.35"/>
    <circle cx="6.7" cy="1.1" r="0.35"/>
    <circle cx="8.5" cy="1.1" r="0.35"/>
    <circle cx="2.2" cy="2.2" r="0.35"/>
    <circle cx="4.0" cy="2.2" r="0.35"/>
    <circle cx="5.8" cy="2.2" r="0.35"/>
    <circle cx="7.6" cy="2.2" r="0.35"/>
    <circle cx="1.3" cy="3.3" r="0.35"/>
    <circle cx="3.1" cy="3.3" r="0.35"/>
    <circle cx="4.9" cy="3.3" r="0.35"/>
    <circle cx="6.7" cy="3.3" r="0.35"/>
    <circle cx="8.5" cy="3.3" r="0.35"/>
    <circle cx="2.2" cy="4.4" r="0.35"/>
    <circle cx="4.0" cy="4.4" r="0.35"/>
    <circle cx="5.8" cy="4.4" r="0.35"/>
    <circle cx="7.6" cy="4.4" r="0.35"/>
    <circle cx="1.3" cy="5.5" r="0.35"/>
    <circle cx="3.1" cy="5.5" r="0.35"/>
    <circle cx="4.9" cy="5.5" r="0.35"/>
    <circle cx="6.7" cy="5.5" r="0.35"/>
    <circle cx="8.5" cy="5.5" r="0.35"/>
    <circle cx="2.2" cy="6.6" r="0.35"/>
    <circle cx="4.0" cy="6.6" r="0.35"/>
    <circle cx="5.8" cy="6.6" r="0.35"/>
    <circle cx="7.6" cy="6.6" r="0.35"/>
    <circle cx="1.3" cy="7.7" r="0.35"/>
    <circle cx="3.1" cy="7.7" r="0.35"/>
    <circle cx="4.9" cy="7.7" r="0.35"/>
    <circle cx="6.7" cy="7.7" r="0.35"/>
    <circle cx="8.5" cy="7.7" r="0.35"/>
  </g>
</svg>
